# MagicaVoxel @ Ephtracy

# group
o 

# material
mtllib Tomato_Box.mtl
usemtl palette

# normals
vn -1 0 0
vn 1 0 0
vn 0 0 1
vn 0 0 -1
vn 0 -1 0
vn 0 1 0

# texcoords
vt 0.00976562 0.5
vt 0.0136719 0.5
vt 0.0957031 0.5

# verts
v -1.4 0 0.8
v -1.4 0 -0.8
v -1.4 0.3 0.5
v -1.4 0.3 -0.5
v -1.4 1 0.5
v -1.4 1 -0.5
v -1.4 1.3 0.8
v -1.4 1.3 -0.8
v -1.3 0.3 0.5
v -1.3 0.3 -0.5
v -1.3 1 0.5
v -1.3 1 -0.5
v -0.4 0.4 0.8
v -0.4 0.4 0.7
v -0.4 0.9 0.8
v -0.4 0.9 0.7
v -0.3 0.3 0.8
v -0.3 0.3 0.7
v -0.3 0.4 0.8
v -0.3 0.4 0.7
v -0.3 0.9 0.8
v -0.3 0.9 0.7
v -0.3 1 0.8
v -0.3 1 0.7
v 1.1 0 0.5
v 1.1 0 -0.5
v 1.1 0.1 0.5
v 1.1 0.1 -0.5
v 1.1 0.2 0.5
v 1.1 0.2 -0.5
v 1.1 0.3 0.8
v 1.1 0.3 0.7
v 1.1 0.3 0.6
v 1.1 0.3 0.5
v 1.1 0.3 -0.5
v 1.1 0.3 -0.6
v 1.1 0.3 -0.7
v 1.1 0.3 -0.8
v 1.1 1 0.8
v 1.1 1 0.7
v 1.1 1 0.6
v 1.1 1 0.5
v 1.1 1 -0.5
v 1.1 1 -0.6
v 1.1 1 -0.7
v 1.1 1 -0.8
v 1.1 1.1 0.5
v 1.1 1.1 -0.5
v 1.1 1.2 0.5
v 1.1 1.2 -0.5
v 1.1 1.3 0.5
v 1.1 1.3 -0.5
v 1.2 0.3 0.5
v 1.2 0.3 -0.5
v 1.2 1 0.5
v 1.2 1 -0.5
v -1.2 0.3 0.5
v -1.2 0.3 -0.5
v -1.2 1 0.5
v -1.2 1 -0.5
v -1.1 0 0.5
v -1.1 0 -0.5
v -1.1 0.1 0.5
v -1.1 0.1 -0.5
v -1.1 0.2 0.5
v -1.1 0.2 -0.5
v -1.1 0.3 0.8
v -1.1 0.3 0.7
v -1.1 0.3 0.6
v -1.1 0.3 0.5
v -1.1 0.3 -0.5
v -1.1 0.3 -0.6
v -1.1 0.3 -0.7
v -1.1 0.3 -0.8
v -1.1 1 0.8
v -1.1 1 0.7
v -1.1 1 0.6
v -1.1 1 0.5
v -1.1 1 -0.5
v -1.1 1 -0.6
v -1.1 1 -0.7
v -1.1 1 -0.8
v -1.1 1.1 0.5
v -1.1 1.1 -0.5
v -1.1 1.2 0.5
v -1.1 1.2 -0.5
v -1.1 1.3 0.5
v -1.1 1.3 -0.5
v 0.3 0.3 0.8
v 0.3 0.3 0.7
v 0.3 0.4 0.8
v 0.3 0.4 0.7
v 0.3 0.9 0.8
v 0.3 0.9 0.7
v 0.3 1 0.8
v 0.3 1 0.7
v 0.4 0.4 0.8
v 0.4 0.4 0.7
v 0.4 0.9 0.8
v 0.4 0.9 0.7
v 1.3 0.3 0.5
v 1.3 0.3 -0.5
v 1.3 1 0.5
v 1.3 1 -0.5
v 1.4 0 0.8
v 1.4 0 -0.8
v 1.4 0.3 0.5
v 1.4 0.3 -0.5
v 1.4 1 0.5
v 1.4 1 -0.5
v 1.4 1.3 0.8
v 1.4 1.3 -0.8
v -1.4 0 0.8
v -1.4 1.3 0.8
v -1.1 0.3 0.8
v -1.1 1 0.8
v -0.4 0.4 0.8
v -0.4 0.9 0.8
v -0.3 0.3 0.8
v -0.3 0.4 0.8
v -0.3 0.5 0.8
v -0.3 0.6 0.8
v -0.3 0.7 0.8
v -0.3 0.8 0.8
v -0.3 0.9 0.8
v -0.3 1 0.8
v -0.2 0.4 0.8
v -0.2 0.5 0.8
v -0.1 0.5 0.8
v -0.1 0.6 0.8
v -0.1 0.7 0.8
v -0.1 0.8 0.8
v -0.1 0.9 0.8
v 0.1 0.4 0.8
v 0.1 0.5 0.8
v 0.1 0.6 0.8
v 0.1 0.7 0.8
v 0.1 0.8 0.8
v 0.1 0.9 0.8
v 0.2 0.6 0.8
v 0.2 0.7 0.8
v 0.3 0.3 0.8
v 0.3 0.4 0.8
v 0.3 0.5 0.8
v 0.3 0.8 0.8
v 0.3 0.9 0.8
v 0.3 1 0.8
v 0.4 0.4 0.8
v 0.4 0.9 0.8
v 1.1 0.3 0.8
v 1.1 1 0.8
v 1.4 0 0.8
v 1.4 1.3 0.8
v -1.1 0.3 0.7
v -1.1 1 0.7
v -0.4 0.4 0.7
v -0.4 0.9 0.7
v -0.3 0.3 0.7
v -0.3 0.4 0.7
v -0.3 0.9 0.7
v -0.3 1 0.7
v 0.3 0.3 0.7
v 0.3 0.4 0.7
v 0.3 0.9 0.7
v 0.3 1 0.7
v 0.4 0.4 0.7
v 0.4 0.9 0.7
v 1.1 0.3 0.7
v 1.1 1 0.7
v -1.4 0.3 -0.5
v -1.4 1 -0.5
v -1.3 0.3 -0.5
v -1.3 1 -0.5
v -1.2 0.3 -0.5
v -1.2 1 -0.5
v -1.1 0 -0.5
v -1.1 0.1 -0.5
v -1.1 0.2 -0.5
v -1.1 0.3 -0.5
v -1.1 1 -0.5
v -1.1 1.1 -0.5
v -1.1 1.2 -0.5
v -1.1 1.3 -0.5
v 1.1 0 -0.5
v 1.1 0.1 -0.5
v 1.1 0.2 -0.5
v 1.1 0.3 -0.5
v 1.1 1 -0.5
v 1.1 1.1 -0.5
v 1.1 1.2 -0.5
v 1.1 1.3 -0.5
v 1.2 0.3 -0.5
v 1.2 1 -0.5
v 1.3 0.3 -0.5
v 1.3 1 -0.5
v 1.4 0.3 -0.5
v 1.4 1 -0.5
v -1.1 0.3 -0.6
v -1.1 1 -0.6
v 1.1 0.3 -0.6
v 1.1 1 -0.6
v -1.1 0.3 0.6
v -1.1 1 0.6
v 1.1 0.3 0.6
v 1.1 1 0.6
v -1.4 0.3 0.5
v -1.4 1 0.5
v -1.3 0.3 0.5
v -1.3 1 0.5
v -1.2 0.3 0.5
v -1.2 1 0.5
v -1.1 0 0.5
v -1.1 0.1 0.5
v -1.1 0.2 0.5
v -1.1 0.3 0.5
v -1.1 1 0.5
v -1.1 1.1 0.5
v -1.1 1.2 0.5
v -1.1 1.3 0.5
v 1.1 0 0.5
v 1.1 0.1 0.5
v 1.1 0.2 0.5
v 1.1 0.3 0.5
v 1.1 1 0.5
v 1.1 1.1 0.5
v 1.1 1.2 0.5
v 1.1 1.3 0.5
v 1.2 0.3 0.5
v 1.2 1 0.5
v 1.3 0.3 0.5
v 1.3 1 0.5
v 1.4 0.3 0.5
v 1.4 1 0.5
v -1.1 0.3 -0.7
v -1.1 1 -0.7
v 1.1 0.3 -0.7
v 1.1 1 -0.7
v -1.4 0 -0.8
v -1.4 1.3 -0.8
v -1.1 0.3 -0.8
v -1.1 1 -0.8
v 1.1 0.3 -0.8
v 1.1 1 -0.8
v 1.4 0 -0.8
v 1.4 1.3 -0.8
v -1.4 0 0.8
v 1.4 0 0.8
v -1.1 0 0.5
v 1.1 0 0.5
v -1.1 0 -0.5
v 1.1 0 -0.5
v -1.4 0 -0.8
v 1.4 0 -0.8
v -1.1 0.1 0.5
v 1.1 0.1 0.5
v -1.1 0.1 -0.5
v 1.1 0.1 -0.5
v -0.4 0.4 0.8
v -0.3 0.4 0.8
v 0.3 0.4 0.8
v 0.4 0.4 0.8
v -0.4 0.4 0.7
v -0.3 0.4 0.7
v 0.3 0.4 0.7
v 0.4 0.4 0.7
v -1.1 1 0.8
v -0.3 1 0.8
v 0.3 1 0.8
v 1.1 1 0.8
v -1.1 1 0.7
v -0.3 1 0.7
v 0.3 1 0.7
v 1.1 1 0.7
v -1.1 1 0.6
v 1.1 1 0.6
v -1.4 1 0.5
v -1.3 1 0.5
v -1.2 1 0.5
v -1.1 1 0.5
v 1.1 1 0.5
v 1.2 1 0.5
v 1.3 1 0.5
v 1.4 1 0.5
v -1.4 1 -0.5
v -1.3 1 -0.5
v -1.2 1 -0.5
v -1.1 1 -0.5
v 1.1 1 -0.5
v 1.2 1 -0.5
v 1.3 1 -0.5
v 1.4 1 -0.5
v -1.1 1 -0.6
v 1.1 1 -0.6
v -1.1 1 -0.7
v 1.1 1 -0.7
v -1.1 1 -0.8
v 1.1 1 -0.8
v -1.1 1.1 0.5
v 1.1 1.1 0.5
v -1.1 1.1 -0.5
v 1.1 1.1 -0.5
v -1.1 0.2 0.5
v 1.1 0.2 0.5
v -1.1 0.2 -0.5
v 1.1 0.2 -0.5
v -1.1 0.3 0.8
v -0.3 0.3 0.8
v 0.3 0.3 0.8
v 1.1 0.3 0.8
v -1.1 0.3 0.7
v -0.3 0.3 0.7
v 0.3 0.3 0.7
v 1.1 0.3 0.7
v -1.1 0.3 0.6
v 1.1 0.3 0.6
v -1.4 0.3 0.5
v -1.3 0.3 0.5
v -1.2 0.3 0.5
v -1.1 0.3 0.5
v 1.1 0.3 0.5
v 1.2 0.3 0.5
v 1.3 0.3 0.5
v 1.4 0.3 0.5
v -1.4 0.3 -0.5
v -1.3 0.3 -0.5
v -1.2 0.3 -0.5
v -1.1 0.3 -0.5
v 1.1 0.3 -0.5
v 1.2 0.3 -0.5
v 1.3 0.3 -0.5
v 1.4 0.3 -0.5
v -1.1 0.3 -0.6
v 1.1 0.3 -0.6
v -1.1 0.3 -0.7
v 1.1 0.3 -0.7
v -1.1 0.3 -0.8
v 1.1 0.3 -0.8
v -0.4 0.9 0.8
v -0.3 0.9 0.8
v 0.3 0.9 0.8
v 0.4 0.9 0.8
v -0.4 0.9 0.7
v -0.3 0.9 0.7
v 0.3 0.9 0.7
v 0.4 0.9 0.7
v -1.1 1.2 0.5
v 1.1 1.2 0.5
v -1.1 1.2 -0.5
v 1.1 1.2 -0.5
v -1.4 1.3 0.8
v 1.4 1.3 0.8
v -1.1 1.3 0.5
v 1.1 1.3 0.5
v -1.1 1.3 -0.5
v 1.1 1.3 -0.5
v -1.4 1.3 -0.8
v 1.4 1.3 -0.8

# faces
f 3/3/1 2/3/1 1/3/1
f 4/3/1 2/3/1 3/3/1
f 5/3/1 3/3/1 1/3/1
f 6/3/1 2/3/1 4/3/1
f 7/3/1 5/3/1 1/3/1
f 7/3/1 6/3/1 5/3/1
f 8/3/1 2/3/1 6/3/1
f 8/3/1 6/3/1 7/3/1
f 11/3/1 10/3/1 9/3/1
f 12/3/1 10/3/1 11/3/1
f 15/1/1 14/1/1 13/1/1
f 16/1/1 14/1/1 15/1/1
f 19/1/1 18/1/1 17/1/1
f 20/1/1 18/1/1 19/1/1
f 23/1/1 22/1/1 21/1/1
f 24/1/1 22/1/1 23/1/1
f 27/3/1 26/3/1 25/3/1
f 28/3/1 26/3/1 27/3/1
f 34/3/1 30/3/1 29/3/1
f 35/3/1 30/3/1 34/3/1
f 39/3/1 32/3/1 31/3/1
f 40/3/1 32/3/1 39/3/1
f 41/3/1 34/3/1 33/3/1
f 42/3/1 34/3/1 41/3/1
f 43/3/1 36/3/1 35/3/1
f 44/3/1 36/3/1 43/3/1
f 45/3/1 38/3/1 37/3/1
f 46/3/1 38/3/1 45/3/1
f 47/3/1 43/3/1 42/3/1
f 48/3/1 43/3/1 47/3/1
f 51/3/1 50/3/1 49/3/1
f 52/3/1 50/3/1 51/3/1
f 55/3/1 54/3/1 53/3/1
f 56/3/1 54/3/1 55/3/1
f 57/3/2 58/3/2 59/3/2
f 59/3/2 58/3/2 60/3/2
f 61/3/2 62/3/2 63/3/2
f 63/3/2 62/3/2 64/3/2
f 65/3/2 66/3/2 70/3/2
f 70/3/2 66/3/2 71/3/2
f 67/3/2 68/3/2 75/3/2
f 75/3/2 68/3/2 76/3/2
f 69/3/2 70/3/2 77/3/2
f 77/3/2 70/3/2 78/3/2
f 71/3/2 72/3/2 79/3/2
f 79/3/2 72/3/2 80/3/2
f 73/3/2 74/3/2 81/3/2
f 81/3/2 74/3/2 82/3/2
f 78/3/2 79/3/2 83/3/2
f 83/3/2 79/3/2 84/3/2
f 85/3/2 86/3/2 87/3/2
f 87/3/2 86/3/2 88/3/2
f 89/1/2 90/1/2 91/1/2
f 91/1/2 90/1/2 92/1/2
f 93/1/2 94/1/2 95/1/2
f 95/1/2 94/1/2 96/1/2
f 97/1/2 98/1/2 99/1/2
f 99/1/2 98/1/2 100/1/2
f 101/3/2 102/3/2 103/3/2
f 103/3/2 102/3/2 104/3/2
f 105/3/2 106/3/2 107/3/2
f 107/3/2 106/3/2 108/3/2
f 105/3/2 107/3/2 109/3/2
f 108/3/2 106/3/2 110/3/2
f 105/3/2 109/3/2 111/3/2
f 109/3/2 110/3/2 111/3/2
f 110/3/2 106/3/2 112/3/2
f 111/3/2 110/3/2 112/3/2
f 115/3/3 114/3/3 113/3/3
f 116/3/3 114/3/3 115/3/3
f 119/3/3 115/3/3 113/3/3
f 120/1/3 118/1/3 117/1/3
f 121/1/3 118/1/3 120/1/3
f 122/1/3 118/1/3 121/1/3
f 123/1/3 118/1/3 122/1/3
f 124/1/3 118/1/3 123/1/3
f 125/1/3 118/1/3 124/1/3
f 126/3/3 114/3/3 116/3/3
f 127/1/3 120/1/3 119/1/3
f 127/1/3 121/1/3 120/1/3
f 128/2/3 122/2/3 121/2/3
f 128/1/3 121/1/3 127/1/3
f 129/2/3 128/2/3 127/2/3
f 129/2/3 122/2/3 128/2/3
f 130/1/3 123/1/3 122/1/3
f 130/2/3 122/2/3 129/2/3
f 131/2/3 124/2/3 123/2/3
f 131/1/3 123/1/3 130/1/3
f 132/1/3 125/1/3 124/1/3
f 132/2/3 124/2/3 131/2/3
f 132/1/3 126/1/3 125/1/3
f 133/1/3 126/1/3 132/1/3
f 134/1/3 127/1/3 119/1/3
f 134/2/3 129/2/3 127/2/3
f 135/1/3 131/1/3 130/1/3
f 135/2/3 129/2/3 134/2/3
f 135/1/3 130/1/3 129/1/3
f 135/1/3 132/1/3 131/1/3
f 136/1/3 132/1/3 135/1/3
f 137/1/3 132/1/3 136/1/3
f 138/2/3 133/2/3 132/2/3
f 138/1/3 132/1/3 137/1/3
f 139/1/3 126/1/3 133/1/3
f 139/2/3 133/2/3 138/2/3
f 140/1/3 137/1/3 136/1/3
f 140/2/3 136/2/3 135/2/3
f 141/2/3 138/2/3 137/2/3
f 141/1/3 137/1/3 140/1/3
f 142/3/3 119/3/3 113/3/3
f 142/1/3 134/1/3 119/1/3
f 142/1/3 135/1/3 134/1/3
f 143/1/3 135/1/3 142/1/3
f 144/2/3 141/2/3 140/2/3
f 144/1/3 135/1/3 143/1/3
f 144/2/3 140/2/3 135/2/3
f 145/2/3 138/2/3 141/2/3
f 145/2/3 141/2/3 144/2/3
f 145/1/3 139/1/3 138/1/3
f 146/1/3 126/1/3 139/1/3
f 146/1/3 139/1/3 145/1/3
f 147/3/3 114/3/3 126/3/3
f 147/1/3 126/1/3 146/1/3
f 148/1/3 144/1/3 143/1/3
f 148/1/3 145/1/3 144/1/3
f 148/1/3 146/1/3 145/1/3
f 149/1/3 146/1/3 148/1/3
f 150/3/3 142/3/3 113/3/3
f 151/3/3 114/3/3 147/3/3
f 152/3/3 150/3/3 113/3/3
f 152/3/3 151/3/3 150/3/3
f 153/3/3 114/3/3 151/3/3
f 153/3/3 151/3/3 152/3/3
f 156/3/3 155/3/3 154/3/3
f 157/3/3 155/3/3 156/3/3
f 158/3/3 156/3/3 154/3/3
f 159/3/3 156/3/3 158/3/3
f 160/3/3 155/3/3 157/3/3
f 161/3/3 155/3/3 160/3/3
f 166/3/3 163/3/3 162/3/3
f 167/3/3 165/3/3 164/3/3
f 168/3/3 166/3/3 162/3/3
f 168/3/3 167/3/3 166/3/3
f 169/3/3 165/3/3 167/3/3
f 169/3/3 167/3/3 168/3/3
f 172/3/3 171/3/3 170/3/3
f 173/3/3 171/3/3 172/3/3
f 179/3/3 175/3/3 174/3/3
f 180/3/3 175/3/3 179/3/3
f 184/3/3 177/3/3 176/3/3
f 185/3/3 177/3/3 184/3/3
f 186/3/3 179/3/3 178/3/3
f 187/3/3 179/3/3 186/3/3
f 188/3/3 181/3/3 180/3/3
f 189/3/3 181/3/3 188/3/3
f 190/3/3 183/3/3 182/3/3
f 191/3/3 183/3/3 190/3/3
f 192/3/3 188/3/3 187/3/3
f 193/3/3 188/3/3 192/3/3
f 196/3/3 195/3/3 194/3/3
f 197/3/3 195/3/3 196/3/3
f 200/3/3 199/3/3 198/3/3
f 201/3/3 199/3/3 200/3/3
f 202/3/4 203/3/4 204/3/4
f 204/3/4 203/3/4 205/3/4
f 206/3/4 207/3/4 208/3/4
f 208/3/4 207/3/4 209/3/4
f 210/3/4 211/3/4 215/3/4
f 215/3/4 211/3/4 216/3/4
f 212/3/4 213/3/4 220/3/4
f 220/3/4 213/3/4 221/3/4
f 214/3/4 215/3/4 222/3/4
f 222/3/4 215/3/4 223/3/4
f 216/3/4 217/3/4 224/3/4
f 224/3/4 217/3/4 225/3/4
f 218/3/4 219/3/4 226/3/4
f 226/3/4 219/3/4 227/3/4
f 223/3/4 224/3/4 228/3/4
f 228/3/4 224/3/4 229/3/4
f 230/3/4 231/3/4 232/3/4
f 232/3/4 231/3/4 233/3/4
f 234/3/4 235/3/4 236/3/4
f 236/3/4 235/3/4 237/3/4
f 238/3/4 239/3/4 240/3/4
f 240/3/4 239/3/4 241/3/4
f 238/3/4 240/3/4 242/3/4
f 241/3/4 239/3/4 243/3/4
f 238/3/4 242/3/4 244/3/4
f 242/3/4 243/3/4 244/3/4
f 243/3/4 239/3/4 245/3/4
f 244/3/4 243/3/4 245/3/4
f 248/3/5 247/3/5 246/3/5
f 249/3/5 247/3/5 248/3/5
f 250/3/5 248/3/5 246/3/5
f 251/3/5 247/3/5 249/3/5
f 252/3/5 250/3/5 246/3/5
f 252/3/5 251/3/5 250/3/5
f 253/3/5 247/3/5 251/3/5
f 253/3/5 251/3/5 252/3/5
f 256/3/5 255/3/5 254/3/5
f 257/3/5 255/3/5 256/3/5
f 262/1/5 259/1/5 258/1/5
f 263/1/5 259/1/5 262/1/5
f 264/1/5 261/1/5 260/1/5
f 265/1/5 261/1/5 264/1/5
f 270/3/5 267/3/5 266/3/5
f 271/3/5 267/3/5 270/3/5
f 272/3/5 269/3/5 268/3/5
f 273/3/5 269/3/5 272/3/5
f 279/3/5 275/3/5 274/3/5
f 280/3/5 275/3/5 279/3/5
f 284/3/5 277/3/5 276/3/5
f 285/3/5 277/3/5 284/3/5
f 286/3/5 279/3/5 278/3/5
f 287/3/5 279/3/5 286/3/5
f 288/3/5 281/3/5 280/3/5
f 289/3/5 281/3/5 288/3/5
f 290/3/5 283/3/5 282/3/5
f 291/3/5 283/3/5 290/3/5
f 292/3/5 288/3/5 287/3/5
f 293/3/5 288/3/5 292/3/5
f 296/3/5 295/3/5 294/3/5
f 297/3/5 295/3/5 296/3/5
f 300/3/5 299/3/5 298/3/5
f 301/3/5 299/3/5 300/3/5
f 302/3/6 303/3/6 304/3/6
f 304/3/6 303/3/6 305/3/6
f 306/3/6 307/3/6 310/3/6
f 310/3/6 307/3/6 311/3/6
f 308/3/6 309/3/6 312/3/6
f 312/3/6 309/3/6 313/3/6
f 314/3/6 315/3/6 319/3/6
f 319/3/6 315/3/6 320/3/6
f 316/3/6 317/3/6 324/3/6
f 324/3/6 317/3/6 325/3/6
f 318/3/6 319/3/6 326/3/6
f 326/3/6 319/3/6 327/3/6
f 320/3/6 321/3/6 328/3/6
f 328/3/6 321/3/6 329/3/6
f 322/3/6 323/3/6 330/3/6
f 330/3/6 323/3/6 331/3/6
f 327/3/6 328/3/6 332/3/6
f 332/3/6 328/3/6 333/3/6
f 334/3/6 335/3/6 336/3/6
f 336/3/6 335/3/6 337/3/6
f 338/1/6 339/1/6 342/1/6
f 342/1/6 339/1/6 343/1/6
f 340/1/6 341/1/6 344/1/6
f 344/1/6 341/1/6 345/1/6
f 346/3/6 347/3/6 348/3/6
f 348/3/6 347/3/6 349/3/6
f 350/3/6 351/3/6 352/3/6
f 352/3/6 351/3/6 353/3/6
f 350/3/6 352/3/6 354/3/6
f 353/3/6 351/3/6 355/3/6
f 350/3/6 354/3/6 356/3/6
f 354/3/6 355/3/6 356/3/6
f 355/3/6 351/3/6 357/3/6
f 356/3/6 355/3/6 357/3/6
